<svg xmlns="http://www.w3.org/2000/svg" viewBox="0 0 427.88 461.89"><defs><style>.cls-1{fill:#fff;}</style></defs><g id="Capa_2" data-name="Capa 2"><g id="Capa_1-2" data-name="Capa 1"><g id="K2u9mA"><path class="cls-1" d="M344.85,109.31c5.7,5.36,11.1,9.83,15.08,15.61a38.82,38.82,0,0,1,5.53,12.24c.24.93.54,2.09-.65,2.61-.88.4-1.55-.35-2.13-.92-2.86-2.8-5.74-5.57-8.54-8.43a23.94,23.94,0,0,0-9-6.18C333.46,120.18,328,111.11,324.9,100c-5-17.74-6.85-35.93-7.76-54.27-.41-8.15-.9-16.35-4.5-23.9-4.38-9.21-9.78-10.92-19-6.76-14.73,6.63-22.43,19.58-29.24,33-6.26,12.34-11.27,25.31-11,39.58,0,1.53-.59,3.27,1.3,5.13,3-25.28,11.06-47.79,29.62-65.57,1.86,1.55.54,2.45.11,3.35-.71,1.5-1.86,2.84-2.34,4.4-1.92,6.17-7,10.79-5,18.93,1.79,7.43-.65,15.89.88,23.8,1,5.2,1.77,9.83,7.2,14s8,12,8,19.77c0,2.26-.54,4.62.86,7.54,16.39-21.07,18.59-45,17.3-70.08,2.71,4.22,3.28,8.93,3.78,13.58a120.21,120.21,0,0,1-1,33.82,57,57,0,0,1-18.4,33.49,17,17,0,0,1-4.68,2.79c-8.39,3.61-8.79,2.17-10.33-4.21a11.24,11.24,0,0,0-4.54-6.58c1,9.13-3,16-7.22,22.71a14.15,14.15,0,0,1-1.36,2.09c-1.64,1.85-3.33,5-5.63,4.38-2.78-.74-.7-4-.88-6.13-.42-5-.72-10-3.23-14.5a106,106,0,0,1-11-29.33c-1.27,9-1.38,17.92,3.44,25.89s5.62,16.07,3.42,24.93c-2.64,10.64-1.34,20.81,4.89,30.1.45.67,1.19,1.38.41,2.17s-1.55.23-2.29-.16a8.72,8.72,0,0,1-1.69-1.06c-12.34-10.82-22.94-22.07-26.31-39.64-4.88-25.42,2.39-48.15,11.3-70.9a198.62,198.62,0,0,1,26.14-46.48c6.59-8.83,13.7-17.27,23.74-22.46,13.44-7,24.85-3,31.47,10.53,4.72,9.67,5.71,20.11,6.8,30.55.83,7.95,1.5,15.91,2.24,23.86,4.75-8.85,12.21-15.34,19.93-21.25,11.5-8.79,23.72-16.63,35.48-25.09,5.4-3.88,10.46-8.24,15.64-12.42,2.11-1.69,4.14-3.6,7.13-2.22,2.83,1.31,3.4,4.08,3.58,6.72.67,9.51-1.64,18.51-5.18,27.25A127.34,127.34,0,0,1,395.5,64c1.9,1,2.3-1.47,4.37-.74-3.64,6.07-7.09,12.17-9.35,18.78,1.49,1,1.91-.37,2.65-.81s1.41-1.11,2.21-.43.42,1.6.06,2.31c-5.24,10.14-5.08,21.67-8.41,32.29-.4,1.29-.26,3.52-2.32,3.2-1.39-.22-1.18-2.16-1.49-3.43-5.09-21,0-40.46,9.32-59.25a139.17,139.17,0,0,0,6.93-16.37c-14.6,21.59-28.72,43.41-22.83,71.53,1.35,6.45,4.36,11.6,10.93,14.94,15.84,8.05,28.17,32.2,25.95,50.08-1.43,11.6,1.78,22.1,6.3,32.42a98.58,98.58,0,0,0,5.6,11.69c4.29,7,2.92,15-3.69,22.39-3,3.4-6.22,6.25-4.8,11.69.74,2.8-4.06,7.22-6.44,6.16-3.14-1.41-5,.31-7.32,1.38-10.43,4.82-21,6-31.93,1.55q-12-4.89-23.61-10.81c-1-.51-2.54-.84-2.34-2.25.23-1.74,2-1.49,3.21-1.61,7.13-.64,14,.28,20.25,4,12.05,7.11,24.07,6.82,35.94-.37,7-4.24,7.44-10.74.48-15.28-9.6-6.27-12-16.31-15.07-26.12-.49-1.6-1.25-4,.65-5.06,2.1-1.19,3.16,1.17,4.42,2.33A48.54,48.54,0,0,1,404,219.66c1.29,2.17,2.61,3.25,5.22,1.92s5.56-.84,8.37-.75c3.76.13,4-1.47,2.28-4.17-2.75-4.38-5.6-8.68-8.27-13.1-4.68-7.74-7.72-16.23-6.59-25.21,2-16.17-4.94-28.32-15.4-39.43-11-11.67-23.88-20.68-38-28A14,14,0,0,0,344.85,109.31Z"/><path class="cls-1" d="M401.55,268.59a10.08,10.08,0,0,1-5.11,7.26c-9.2,5.74-18.78,7.66-29.28,3a191,191,0,0,0-22.94-8.44c-7.82-2.33-13.17,1.05-15.68,8.88a34.26,34.26,0,0,0-.58,17.29c3.45,17.7,1.72,35.41-.14,53.05-1,9.3-8.94,15.7-11.13,25.09-2.47-1.91-1.25-3.15-.93-4.24,4.73-16.22,5.53-32.71,0-48.65-2.6-7.52-5.86-15.21-12.17-21.25C289.46,287,274.52,274,265.13,256.27c-4.37-8.23-9.87-16.42-11.12-25.51-1.44-10.47-4-21-2.7-31.82.13-1.07.09-2.4,1.65-2.71,1.51.75,1.14,2.26,1.38,3.49,4.8,24.89,19.68,40.42,43.87,47.31q3.12.89,6.32,1.5c21,4,41.36,9.94,60.45,19.72,7.83,4,16,5.09,24.7,4.53C393.86,272.52,396.94,269.7,401.55,268.59Z"/><path class="cls-1" d="M224,134.25c-1.12,2.67-2.24,5.35-3.39,8.07,2.08,1,3.59-1.09,5.75-.34-.92,3.72-2.94,7-4.84,10.12-8.29,13.86-12,29.47-17.15,44.5C198,215,193.6,234.08,182.91,250.74c-4.69,7.3-9.55,14.45-15.73,20.59-1.11,1.11-2,2.75-4,2.68-.86-2.31,2-2.85,2.18-5.79-9,8.64-17.72,16.45-30,21.66,2.09-4.46,5.7-5.32,7.46-8-10.16,5.69-19.79,12.48-32.38,14.6,1.23-3.2,3.61-3.42,5.34-4.45,5.41-3.23,12.16-4.53,15-11.38.67-1.61,3-2.58,4.59-3.75a114.65,114.65,0,0,0,41.14-54.6c9.15-24.88,19.14-49.37,33.37-71.88,3.79-6,7.55-12,12.82-16.86Z"/><path class="cls-1" d="M231.26,177.79c1.84.33,1.22,1.65.93,2.67-1.35,4.8-2.31,9.78-4.27,14.32-8.87,20.58-9.69,41.83-6.2,63.6a51.68,51.68,0,0,1-.22,19.36,15.27,15.27,0,0,1-3.14,6.71c-3.15,3.76-7.08,3.65-10-.25-2.31-3-3-6.64-3.29-10.31-1-11.92-2.11-23.84-3-35.77-1-13.08,3.39-24.91,9.19-36.28a106.1,106.1,0,0,1,9.29-14.77c2.7-3.65,7.47-4.86,9.82-8.82C230.48,178,230.92,178,231.26,177.79Z"/><path class="cls-1" d="M388.52,213.48a24.82,24.82,0,0,1-6.6,16.26c-2.35,2.57-4.95,4.93-7.51,7.29-1.17,1.08-2.25,3-4.11,2.12-2.19-1.06-1.76-3.36-1.47-5.33.6-4,2.5-7.56,4.38-11.08a17.28,17.28,0,0,0,.94-14c-1.58-4.9-4.06-8.08-10.25-8.07-8.57,0-14.4-5.38-18.51-12.53-1.75-3-3.05-6.3-6.88-7.38a2,2,0,0,1-1.65-2.18c.2-1.14,1.24-1.55,2.2-1.74,7.34-1.44,14.4-4.37,21.91-4.67,5.39-.21,10.69,1.54,13.09,6.65,4.09,8.73,8.66,17.2,12.81,25.89A18.64,18.64,0,0,1,388.52,213.48Z"/><path class="cls-1" d="M267.16,351c-.31,1.49-.51,3.16-1,4.74-1.65,5.46-5.68,6.68-9.7,2.7a59.33,59.33,0,0,1-6.11-7.85c-4.66-6.56-9.74-12.63-16.65-17-4.55-2.88-8.41-6.49-10.76-11.51a18.17,18.17,0,0,1-2-8.15c.18-9.65,7.26-13.9,15.64-9.14,9.53,5.42,15.8,14,21.78,22.92A57.13,57.13,0,0,1,267.16,351Z"/><path class="cls-1" d="M294.39,345.38c-1.23,5.22-1.27,11-1.29,16.87,0,1.28.11,3.29-1.38,3.37-2.23.12-1.5-2.13-1.63-3.43-1.43-14.27-5.76-27.4-15.68-38.07-4.28-4.62-9.26-8.59-13.18-13.6-2.5-3.21-4.64-6.55-5.11-10.66-.4-3.46-.06-6.89,3.52-8.62,3.29-1.59,6.17-.06,8.66,2.13a66.65,66.65,0,0,1,14.14,17.36C288.46,321.37,293.68,332.32,294.39,345.38Z"/><path class="cls-1" d="M193.21,277.86c-.05,11.42-12.11,25.19-22.83,26.64-2.91.39-5.88.3-7.49-2.61a7.65,7.65,0,0,1,.73-8.92,40.29,40.29,0,0,1,6.1-5.86c3.82-3,7.36-6.22,9.67-10.6a12.65,12.65,0,0,1,2.13-2.76c2-2.06,4.1-4.29,7.32-3C192.23,272.08,193.11,275.13,193.21,277.86Z"/><path class="cls-1" d="M300.18,202.86c-4-.35-7.88-1.08-11.3-3.46-2.92-2-3.09-4.91.29-5.28,10.59-1.16,18.72-7.21,27.49-12.16,3.73-2.11,7.84-.94,11.62.54,2.64,1,3.15,2.9.28,4-7.93,3.1-14.34,8.24-20.45,13.95A10,10,0,0,1,300.18,202.86Z"/><path class="cls-1" d="M240.05,257.51a7,7,0,0,1,.14-1.9c.7-3,.89-7,4.33-7.73,3.17-.65,3.29,3.47,4.78,5.46A29.36,29.36,0,0,1,255,267.48c.38,3.12-.05,6.18-3.5,7.41s-5.82-.57-7.65-3.17C241.05,267.81,239.93,263.35,240.05,257.51Z"/><path class="cls-1" d="M308.81,233.92c-6.93-.36-13.31-1.25-18.87-5-2.18-1.46-4.55-3.4-3.24-6.51s4.25-3.41,7.18-3.09A20.9,20.9,0,0,1,303,223c3.89,2.51,7.66,5.23,12,6.94.89.34,2.09.6,2,1.83s-1.29,1.45-2.23,1.58C312.7,233.63,310.55,233.76,308.81,233.92Z"/><path class="cls-1" d="M378.23,166.5a25.7,25.7,0,0,1-.29,2.95c-.28,1.45-.53,3.1-2.22,3.59s-2.48-1.15-3.58-2.1c-7.09-6.1-6.87-15.1-9.12-23.09-.77-2.76,1.1-2.69,2.87-1.58C373.17,150.84,378,157,378.23,166.5Z"/><path class="cls-1" d="M394.44,158.49c0,1.25.27,2.37-1,2.81a2.1,2.1,0,0,1-2.22-.78,30.1,30.1,0,0,1-2.33-2.59c-5.58-7.24-11.18-14.46-16.63-21.8-1.11-1.48-2.88-3.57-.89-5.29,1.66-1.44,3.48.29,4.86,1.35C385.2,139.07,392,147.41,394.44,158.49Z"/><path class="cls-1" d="M213,326.86c-.38,2.93-.94,5.81-4.19,6.74-2.94.83-5.14-.69-6.81-3-2.18-3-3.93-6.15-4-10-.05-2.91,1-5.22,3.84-6.34,2.63-1,5-.08,6.82,1.75C211.62,319,212.42,322.91,213,326.86Z"/><path class="cls-1" d="M332.18,225.26c-4.15-.25-8.32-.4-12-2.51-2.16-1.23-4.6-2.8-3.57-5.75s3.9-3.32,6.66-2.86c6.27,1.07,10.77,5.61,16.12,8.5,1.54.83.8,2-.75,2.21C336.48,225.1,334.32,225.13,332.18,225.26Z"/><path class="cls-1" d="M280.71,188.76c-1.7,0-3.42-.12-4.15-2-.64-1.63.18-3,1.29-4,3.49-3.3,7.39-5.66,12.47-5,1.5.2,3,.55,3.58,2.23s-.39,2.89-1.46,4C289.21,187.17,285.06,188.21,280.71,188.76Z"/><path class="cls-1" d="M271.86,211.31c-2-.24-4.45-.57-4.59-3.7s5.05-6.61,9.52-6.35c2.74.16,5.53.79,5.59,4.33C282.42,208.27,276.68,211.38,271.86,211.31Z"/></g><path class="cls-1" d="M108.39,403.2a1.06,1.06,0,0,1-1.14,1.14c-7.48,0-21.17,4.69-35.75,11a8.82,8.82,0,0,1,.63,3.17c0,16.61-33.85,43.35-47.54,43.35-6.08,0-14.19-5.45-14.19-12,0-9.51,23.7-23.83,47.41-34.73C43.48,409.67,0,405.86,0,387c0-26.24,72.13-70.35,97.61-70.35,7.86,0,17.24,5.57,17.24,13.81,0,15.72-38.15,62.75-54.38,62.75-6,0-10.52-4.18-10.52-6.46,0-.76.63-1.39,2-1.39,15.72,0,55-47,55-59.71,0-2-.88-3.17-3-3.17-20,0-92.29,47.66-92.29,64.52,0,10.4,42,12.81,55.91,23.84,16-6.72,30.55-11.41,36.13-11.41C106.61,399.4,108.39,401.8,108.39,403.2Zm-88.74,47c8.62,0,39.68-22.18,42.47-30.55-22.69,10.78-44.63,24.09-44.63,28.65C17.49,449.6,18.25,450.23,19.65,450.23Z"/><path class="cls-1" d="M143.24,409.92c1.27,0,2.54,1.77,2.54,3.29a1.92,1.92,0,0,1-.51,1.4c-4.69,4.69-28.39,28.78-48.68,28.78a12.18,12.18,0,0,1-12.17-12.17c0-12.17,22.82-43,33.09-43,6.47,0,10.9,5.32,10.9,8.87,0,8.62-14.07,29.54-30.68,31.95v.25l-.12.64c0,3.29,1.52,4.94,4.94,4.94,13.31,0,35.75-20.66,39.81-24.59A1.37,1.37,0,0,1,143.24,409.92ZM121.69,394.2c0-.51-.12-.76-.38-.76-2.66,0-15.21,15.34-20.79,27.38C110.79,419.05,121.69,398.26,121.69,394.2Z"/><path class="cls-1" d="M191.79,409.79c1.14,0,2.54,1.9,2.54,3.42a1.63,1.63,0,0,1-.51,1.27c-2.79,2.92-25.23,24.6-33.47,24.6-4.81,0-9.12-4.57-9.12-9.89,0-6.59,11.41-19.4,11.41-23.2,0-1.65-2.67-2.28-6-2.79-16.35,17.75-20,18.25-19.78,18.25-1.65,0-3.42-1.39-3.42-2.66,0-.38,4.44-4.05,16.86-16.73-4.82-.89-9.25-2.41-9.25-6.47,0-5.45,11.28-15.59,20.15-15.59,5.07,0,7.1,1.78,7.1,4.44,0,3.55-3.42,8.87-7.86,14.32,5.07,1.65,11.16,3.55,11.16,9.64,0,3-8.12,17.74-8.12,21.67,0,.64.13,1,.64,1,3.55,0,23.07-17.24,26.75-20.92A1.14,1.14,0,0,1,191.79,409.79Zm-36.51-12.93c4.82-4.94,8.5-9.38,8.5-11,0-.5-.26-.76-.89-.76-1.27,0-9.89,6.21-9.89,8.88A3.34,3.34,0,0,0,155.28,396.86Z"/><path class="cls-1" d="M222.6,386.09c0-.64.63-.89,1.64-.89,3,0,9.51,3.29,9.51,9.76,0,10.9-33.21,48.43-41.71,48.43-5.83,0-11.66-4.19-11.66-9.89,0-7.61,15.47-35,20.41-39.94a3.88,3.88,0,0,1,2.92-1.26c3.42,0,7.1,3.93,7.1,5.7a.76.76,0,0,1-.13.51c-3.68,3.68-18.13,29.92-18.13,35.75,0,.76.25,1.14.76,1.14,3.17,0,31.44-33.34,31.44-44.62a3.56,3.56,0,0,0-.89-2.67C223,387.23,222.6,386.59,222.6,386.09Z"/><path class="cls-1" d="M353.29,348.31c3.43,0,7.23,3.93,7.23,5.7a.76.76,0,0,1-.13.51c-10.39,10.4-47.54,74-47.54,80.5,0,.38.13.51.38.51,4.82,0,31.57-25.61,31.57-25.61,1.14,0,2.53,1.9,2.53,3.42a1.62,1.62,0,0,1-.5,1.27c-2.92,2.91-28,28.9-36.13,28.9-4.82,0-9.13-3.29-9.13-8.62,0-4.43,7-18,15.59-33.21-13.18,16.48-26.87,31.18-34.35,31.18-8.11,0-10.65-5.57-10.65-12a30.37,30.37,0,0,1,1.39-8.87C262,421.45,243,443.39,235,443.39c-5,0-7.61-4.19-7.61-9.89,0-12.93,25.1-43.87,39.68-43.87,6.46,0,10.9,4.44,10.9,8.75a3.52,3.52,0,0,1-3.17,3.68c-1.65,0-1.27-4.82-5.2-4.82-7.35,0-32.32,34.1-32.32,37.4a.27.27,0,0,0,.25.25c3,0,36.26-32.7,43.23-32.7,3.8,0,8.37,4.05,8.37,5.7,0-.38-4.06,8.62-4.06,13.82,0,1.9.51,3.17,1.52,3.17,6.59,0,65.8-78.35,63.89-75.43A3.94,3.94,0,0,1,353.29,348.31Z"/></g></g></svg>