<svg xmlns="http://www.w3.org/2000/svg" viewBox="0 0 276.97 36.28"><defs><style>.cls-1{fill:#00569c;}.cls-2{fill:#004f8d;}.cls-3{fill:#dd710f;}.cls-4{fill:#82bde0;}.cls-5{fill:#00893e;}.cls-6{fill:#d56599;}.cls-7{fill:#f1da00;}.cls-8{fill:#f7e300;}</style></defs><title>Logo (2)</title><g id="Capa_2" data-name="Capa 2"><g id="Header"><g id="Header_Superior" data-name="Header Superior"><g id="Grupo_de_logos_y_elemet_del_header" data-name="Grupo de logos y elemet del header"><g id="Logo"><g id="ADN_Logo" data-name="ADN Logo"><path class="cls-1" d="M26.44,24.11c0-1.18,0-1.4,0-1.65s-.07-.39-.33-.44a1.28,1.28,0,0,0-.3,0c-.09,0-.14,0-.14-.07s.06-.07.18-.07l1.11,0,1.2,0a4.11,4.11,0,0,1,3.11.88,2.76,2.76,0,0,1,.75,2,3.1,3.1,0,0,1-.84,2.17,3.58,3.58,0,0,1-2.6.91c-.57,0-1.27-.09-1.66-.09l-1,0c-.1,0-.16,0-.16-.07s0-.07.13-.07a1,1,0,0,0,.27,0c.16,0,.2-.2.23-.42s0-.94,0-1.66Zm1,.85c0,.82,0,1.42,0,1.57a1.83,1.83,0,0,0,.09.59c.1.15.4.31,1,.31a2.49,2.49,0,0,0,1.78-.56A2.44,2.44,0,0,0,31,24.94,2.65,2.65,0,0,0,30.22,23,3.07,3.07,0,0,0,28,22.22a1.66,1.66,0,0,0-.5.06.13.13,0,0,0-.09.15c0,.26,0,.94,0,1.55Z"/><path class="cls-1" d="M34.4,24.11c0-1.18,0-1.4,0-1.65s-.1-.39-.27-.43a.83.83,0,0,0-.28,0c-.07,0-.12,0-.12-.08s.06-.06.19-.06l1,0,.94,0c.1,0,.17,0,.17.06S36,22,35.9,22a.93.93,0,0,0-.23,0c-.21,0-.27.17-.29.44s0,.47,0,1.65v1.36c0,.76,0,1.37,0,1.7s.07.35.31.38a2.56,2.56,0,0,0,.39,0c.09,0,.13,0,.13.07s-.06.07-.15.07l-1.21,0-1,0c-.1,0-.15,0-.15-.07s0-.07.12-.07a1,1,0,0,0,.28,0c.15,0,.2-.16.22-.38s0-.94,0-1.7Z"/><path class="cls-1" d="M38.48,27.63c-.12-.05-.15-.09-.15-.26,0-.43,0-.9,0-1s0-.2.09-.2.08.07.08.13a1.68,1.68,0,0,0,.07.4,1.07,1.07,0,0,0,1.11.78.94.94,0,0,0,1-.88c0-.38-.11-.75-.76-1.25l-.36-.28a2.29,2.29,0,0,1-1.14-1.84c0-.85.71-1.46,1.79-1.46a4,4,0,0,1,1,.13c.07,0,.11,0,.11.09s0,.33,0,.93c0,.17,0,.24-.09.24s-.07-.05-.07-.14a1,1,0,0,0-.21-.52,1,1,0,0,0-.84-.38.82.82,0,0,0-.93.8c0,.36.18.63.83,1.12l.21.17c.94.72,1.28,1.24,1.28,2a1.58,1.58,0,0,1-.73,1.36,2.33,2.33,0,0,1-1.24.31A2.63,2.63,0,0,1,38.48,27.63Z"/><path class="cls-1" d="M45.37,22.29l-1.15,0c-.45,0-.64.06-.76.23a1.25,1.25,0,0,0-.13.27c0,.06,0,.09-.08.09s-.07,0-.07-.12.14-.83.16-.9,0-.14.09-.14.14.08.34.09.52,0,.77,0h3.08a3.27,3.27,0,0,0,.74-.08c.06,0,.06.05.06.16s0,.7,0,.91,0,.12-.07.12-.08,0-.08-.16v-.08c0-.2-.23-.42-.92-.44l-1,0v3.18c0,.72,0,1.33,0,1.66s.07.39.31.42a2.38,2.38,0,0,0,.39,0c.09,0,.13,0,.13.07s-.07.07-.15.07l-1.22,0-1,0c-.1,0-.15,0-.15-.07s0-.07.12-.07a1,1,0,0,0,.28,0c.15,0,.2-.2.22-.42s0-.94,0-1.66Z"/><path class="cls-1" d="M50.94,24.11c0-1.18,0-1.4,0-1.65s-.08-.39-.34-.44a1.28,1.28,0,0,0-.3,0c-.08,0-.13,0-.13-.07s.05-.07.17-.07l1.06,0,1.1,0a2.46,2.46,0,0,1,1.43.33,1.36,1.36,0,0,1,.52,1.06,2.17,2.17,0,0,1-1,1.74c.69.87,1.23,1.56,1.68,2a1.57,1.57,0,0,0,.87.53.94.94,0,0,0,.22,0c.06,0,.09,0,.09.07s-.05.07-.14.07H55.4a1.56,1.56,0,0,1-.83-.14,3.71,3.71,0,0,1-1.06-1.14c-.32-.43-.67-1-.77-1.08a.19.19,0,0,0-.14-.05h-.68s-.06,0-.06.06v.11c0,.72,0,1.33,0,1.66s.07.39.3.42a2.75,2.75,0,0,0,.38,0c.06,0,.09,0,.09.07s-.05.07-.15.07l-1.14,0-1,0c-.1,0-.15,0-.15-.07s0-.07.12-.07a1,1,0,0,0,.28,0c.15,0,.19-.2.22-.42s0-.94,0-1.66Zm.92.61c0,.09,0,.12.07.14a2.21,2.21,0,0,0,.59.08.78.78,0,0,0,.55-.13,1.38,1.38,0,0,0,.46-1.17,1.24,1.24,0,0,0-1.19-1.42,1.94,1.94,0,0,0-.41,0c-.06,0-.07.05-.07.11Z"/><path class="cls-1" d="M58,24.11c0-1.18,0-1.4,0-1.65s-.09-.39-.26-.43a.89.89,0,0,0-.28,0c-.08,0-.13,0-.13-.08s.07-.06.19-.06l1,0,1,0c.1,0,.16,0,.16.06s0,.08-.12.08a1.06,1.06,0,0,0-.24,0c-.21,0-.27.17-.28.44s0,.47,0,1.65v1.36c0,.76,0,1.37,0,1.7s.08.35.31.38a2.6,2.6,0,0,0,.4,0c.08,0,.12,0,.12.07s-.06.07-.15.07l-1.21,0-1,0c-.11,0-.16,0-.16-.07s0-.07.12-.07a1,1,0,0,0,.28,0c.16,0,.21-.16.23-.38s0-.94,0-1.7Z"/><path class="cls-1" d="M63.46,22.29l-1.16,0c-.45,0-.63.06-.75.23a.9.9,0,0,0-.13.27c0,.06,0,.09-.09.09s-.07,0-.07-.12a9.07,9.07,0,0,1,.17-.9c0-.1,0-.14.09-.14a1.47,1.47,0,0,0,.33.09c.23,0,.52,0,.78,0H65.7a3.31,3.31,0,0,0,.75-.08s.06.05.06.16,0,.7,0,.91,0,.12-.07.12-.08,0-.09-.16v-.08c0-.2-.23-.42-.92-.44l-1,0v3.18c0,.72,0,1.33,0,1.66s.07.39.3.42a2.6,2.6,0,0,0,.4,0c.08,0,.12,0,.12.07s-.06.07-.14.07l-1.22,0-1,0c-.1,0-.16,0-.16-.07s0-.07.13-.07a1.09,1.09,0,0,0,.28,0c.15,0,.2-.2.22-.42s0-.94,0-1.66Z"/><path class="cls-1" d="M67.89,24.79a3,3,0,0,1,3.21-3,2.82,2.82,0,0,1,3.14,2.9A3.07,3.07,0,0,1,71,27.83,3,3,0,0,1,67.89,24.79Zm5.26.15c0-1.74-1-2.82-2.27-2.82-.9,0-1.91.5-1.91,2.43,0,1.61.89,2.9,2.38,2.9C71.89,27.45,73.15,27.18,73.15,24.94Z"/><path class="cls-1" d="M80.5,26.67c0,.6.12.81.27.86a1.15,1.15,0,0,0,.41,0c.08,0,.13,0,.13.07s-.07.07-.18.07c-.51,0-.82,0-1,0l-.84,0c-.1,0-.17,0-.17-.07s0-.07.12-.07a1.42,1.42,0,0,0,.35,0c.2-.07.23-.29.24-1L79.94,22c0-.16,0-.27.1-.27s.16.11.29.24,1.27,1.37,2.41,2.5c.52.52,1.57,1.64,1.7,1.77h0l-.07-3.49c0-.47-.08-.62-.27-.7a1.46,1.46,0,0,0-.41,0c-.09,0-.12,0-.12-.07s.08-.07.2-.07l.94,0c.08,0,.38,0,.76,0,.1,0,.18,0,.18.07s0,.07-.14.07a1.06,1.06,0,0,0-.24,0c-.21.06-.28.22-.28.66l-.09,4.9c0,.17,0,.24-.1.24s-.18-.09-.26-.17c-.49-.47-1.49-1.49-2.29-2.29s-1.71-1.8-1.85-1.95h0Z"/><path class="cls-1" d="M88.73,25.7s-.06,0-.07.06l-.42,1.11a1.45,1.45,0,0,0-.12.47c0,.14.07.24.31.24h.12c.09,0,.11,0,.11.07s0,.07-.13.07l-.82,0-.92,0c-.1,0-.15,0-.15-.07s0-.07.1-.07H87c.36-.05.5-.31.66-.7l2-4.87c.09-.23.14-.31.21-.31s.12.07.2.24c.18.43,1.43,3.6,1.92,4.78.3.7.52.81.69.84a1.23,1.23,0,0,0,.32,0c.06,0,.1,0,.1.07s-.07.07-.35.07H91.21c-.14,0-.23,0-.23-.06s0-.07.11-.07a.13.13,0,0,0,.06-.18l-.62-1.65s0-.05-.07-.05Zm1.58-.39s0,0,0,0l-.7-1.91s0-.07,0-.07,0,0,0,.07l-.71,1.91s0,0,0,0Z"/><path class="cls-1" d="M94.89,27a2.91,2.91,0,0,1-1-2.29,2.94,2.94,0,0,1,.91-2.13,3.4,3.4,0,0,1,2.45-.82,7.2,7.2,0,0,1,1.13.08c.29,0,.54.1.78.13.08,0,.11,0,.11.09s0,.16,0,.43,0,.68,0,.84,0,.17-.09.17-.08-.06-.08-.17a1.12,1.12,0,0,0-.3-.71,2.35,2.35,0,0,0-1.58-.48,2,2,0,0,0-1.46.48,2.58,2.58,0,0,0-.71,2,2.6,2.6,0,0,0,2.44,2.76c.69,0,1.11-.07,1.42-.43a1.34,1.34,0,0,0,.27-.51c0-.13,0-.16.1-.16s.07.06.07.12a8.64,8.64,0,0,1-.17,1,.27.27,0,0,1-.2.22,4.41,4.41,0,0,1-1.4.18A3.86,3.86,0,0,1,94.89,27Z"/><path class="cls-1" d="M102,24.11c0-1.18,0-1.4,0-1.65s-.1-.39-.27-.43a.83.83,0,0,0-.28,0c-.07,0-.12,0-.12-.08s.06-.06.19-.06l1,0,1,0c.1,0,.16,0,.16.06s0,.08-.12.08a.93.93,0,0,0-.23,0c-.21,0-.27.17-.29.44s0,.47,0,1.65v1.36c0,.76,0,1.37,0,1.7s.07.35.31.38a2.47,2.47,0,0,0,.39,0c.09,0,.13,0,.13.07s-.07.07-.15.07l-1.21,0-1,0c-.1,0-.16,0-.16-.07s0-.07.13-.07a1.09,1.09,0,0,0,.28,0c.15,0,.2-.16.22-.38s0-.94,0-1.7Z"/><path class="cls-1" d="M105.45,24.79a3,3,0,0,1,3.2-3,2.81,2.81,0,0,1,3.14,2.9,3.07,3.07,0,0,1-3.22,3.18A3,3,0,0,1,105.45,24.79Zm5.25.15c0-1.74-1-2.82-2.27-2.82-.89,0-1.91.5-1.91,2.43,0,1.61.89,2.9,2.38,2.9C109.44,27.45,110.7,27.18,110.7,24.94Z"/><path class="cls-1" d="M114.61,26.67c0,.6.11.81.27.86a1.13,1.13,0,0,0,.4,0c.09,0,.14,0,.14.07s-.07.07-.18.07c-.51,0-.82,0-1,0l-.83,0c-.1,0-.17,0-.17-.07s0-.07.12-.07a1.42,1.42,0,0,0,.35,0c.2-.07.23-.29.24-1l.07-4.59c0-.16,0-.27.1-.27s.16.11.29.24,1.27,1.37,2.4,2.5c.53.52,1.58,1.64,1.71,1.77h0l-.08-3.49c0-.47-.07-.62-.26-.7a1.46,1.46,0,0,0-.41,0c-.1,0-.13,0-.13-.07s.09-.07.21-.07l.93,0c.09,0,.38,0,.77,0,.1,0,.17,0,.17.07s0,.07-.14.07a1,1,0,0,0-.23,0c-.22.06-.28.22-.29.66l-.08,4.9c0,.17,0,.24-.1.24s-.18-.09-.27-.17c-.49-.47-1.48-1.49-2.29-2.29s-1.7-1.8-1.84-1.95h0Z"/><path class="cls-1" d="M122.8,25.7s0,0-.07.06l-.42,1.11a1.67,1.67,0,0,0-.11.47c0,.14.07.24.31.24h.11c.1,0,.12,0,.12.07s0,.07-.13.07l-.83,0-.91,0c-.1,0-.15,0-.15-.07s0-.07.09-.07h.25c.35-.05.5-.31.66-.7L123.66,22c.1-.23.14-.31.22-.31s.12.07.19.24c.19.43,1.43,3.6,1.93,4.78.29.7.52.81.68.84a1.35,1.35,0,0,0,.33,0c.06,0,.1,0,.1.07s-.07.07-.36.07h-1.46c-.14,0-.24,0-.24-.06s0-.07.11-.07a.13.13,0,0,0,.07-.18l-.62-1.65s0-.05-.08-.05Zm1.59-.39s0,0,0,0l-.69-1.91s0-.07,0-.07,0,0,0,.07l-.71,1.91s0,0,0,0Z"/><path class="cls-1" d="M129.89,25.47c0,1,0,1.53.17,1.67s.33.17.94.17c.41,0,.71,0,.9-.21a1,1,0,0,0,.21-.47c0-.07,0-.12.08-.12s.06,0,.06.14a6.41,6.41,0,0,1-.11.89c0,.17-.09.21-.49.21-1.12,0-1.63-.05-2.26-.05l-1,0c-.1,0-.15,0-.15-.07s0-.07.12-.07a1,1,0,0,0,.28,0c.15,0,.19-.2.22-.42s0-.94,0-1.66V24.11c0-1.18,0-1.4,0-1.65s-.08-.39-.34-.44a.9.9,0,0,0-.25,0c-.09,0-.13,0-.13-.07s.05-.07.17-.07l1.06,0,1.06,0c.1,0,.16,0,.16.07s0,.07-.14.07a1.51,1.51,0,0,0-.3,0c-.21,0-.28.17-.29.44s0,.47,0,1.65Z"/><path class="cls-1" d="M28.76,10.5l1.83,5a1.44,1.44,0,0,0,.18.39.49.49,0,0,0,.24.15l.39.12v.17H29.3l0-.17.4-.12.11-.06a.14.14,0,0,0,0-.11.74.74,0,0,0,0-.22,2.49,2.49,0,0,0-.12-.36l-.38-1.1h-2l-.43,1.1c-.06.15-.11.28-.14.37a.76.76,0,0,0,0,.21.14.14,0,0,0,0,.11l.12.06.38.11v.18H25.44l0-.17.42-.13a.44.44,0,0,0,.23-.15,1.62,1.62,0,0,0,.17-.33l2.1-5Zm-1.32,3.35h1.7l-.8-2.28Z"/><path class="cls-1" d="M34.38,11.73V16h2l.53-1.09.18,0L37,16.33l0,0H33l0-.17.51-.16a.14.14,0,0,0,.11-.12c0-.11,0-.24,0-.37V11.36c0-.11,0-.21,0-.3a.14.14,0,0,0-.1-.14L33,10.76v-.18l1,0,1,0v.18l-.51.15a.15.15,0,0,0-.11.13v.69Z"/><path class="cls-1" d="M43.19,12,43,12,42.72,11a4.14,4.14,0,0,0-.92-.13,1.93,1.93,0,0,0-1.59.71,2.82,2.82,0,0,0-.58,1.83,2.73,2.73,0,0,0,.66,1.92,2.35,2.35,0,0,0,1.83.71,4.16,4.16,0,0,0,1.38-.25l0,.19a3.17,3.17,0,0,1-1.83.56,3,3,0,0,1-2.16-.81,2.87,2.87,0,0,1-.82-2.14,2.87,2.87,0,0,1,.91-2.24A3.33,3.33,0,0,1,42,10.49a6,6,0,0,1,1.43.17l0,0Z"/><path class="cls-1" d="M48.13,10.5l1.82,5a1.75,1.75,0,0,0,.19.39.49.49,0,0,0,.24.15l.39.12v.17H48.67l0-.17.39-.12a.33.33,0,0,0,.12-.06.18.18,0,0,0,0-.11.74.74,0,0,0-.05-.22L49,15.32l-.39-1.1h-2l-.43,1.1c-.06.15-.11.28-.14.37a.76.76,0,0,0-.05.21.14.14,0,0,0,0,.11.44.44,0,0,0,.12.06l.38.11v.18H44.8l0-.17.42-.13a.49.49,0,0,0,.23-.15,2.38,2.38,0,0,0,.17-.33l2.1-5Zm-1.32,3.35h1.7l-.81-2.28Z"/><path class="cls-1" d="M53.75,11.73V16h2l.53-1.09.18,0-.09,1.47,0,0h-4l0-.17.51-.16a.14.14,0,0,0,.11-.12c0-.11,0-.24,0-.37V11.36c0-.11,0-.21,0-.3a.14.14,0,0,0-.1-.14l-.51-.16v-.18l1,0,1,0,0,.18-.51.15a.14.14,0,0,0-.11.13v.69Z"/><path class="cls-1" d="M59.24,16.35h-1l0-.17.51-.16a.14.14,0,0,0,.11-.12v-.37c0-.14,0-.29,0-.45V11.74c0-.14,0-.26,0-.38v-.3a.15.15,0,0,0-.1-.14l-.51-.16v-.18l1,0,.8,0c.25,0,.51,0,.78,0a3.18,3.18,0,0,1,2.17.65,2.52,2.52,0,0,1,.72,2,3.26,3.26,0,0,1-.8,2.36,3,3,0,0,1-2.26.85l-.71,0Zm.39-.37a3.91,3.91,0,0,0,.48.05h.47a2.12,2.12,0,0,0,1.65-.64,2.9,2.9,0,0,0,.57-2,2.84,2.84,0,0,0-.54-1.9,2.13,2.13,0,0,0-1.71-.62h-.41l-.51,0Z"/><path class="cls-1" d="M67.17,15.09v.44c0,.14,0,.26,0,.37s0,.12.14.14l.47.15v.17h-2l0-.17.51-.16c.07,0,.11-.06.11-.12s0-.24,0-.37V11.36a2.81,2.81,0,0,0,0-.3.13.13,0,0,0-.1-.14l-.51-.16v-.18l1,0,1,0v.18l-.51.15a.13.13,0,0,0-.1.13c0,.1,0,.2,0,.31v3.74Zm.59-5.55L66,10.19,65.85,10,67.2,9l.56.49Z"/><path class="cls-1" d="M72.5,10.5l1.83,5a1.39,1.39,0,0,0,.19.39.49.49,0,0,0,.24.15l.39.12v.17H73.05l0-.17.39-.12a.33.33,0,0,0,.12-.06.18.18,0,0,0,0-.11.74.74,0,0,0,0-.22l-.12-.36L73,14.22H71l-.44,1.1-.13.37a.76.76,0,0,0,0,.21.14.14,0,0,0,0,.11.33.33,0,0,0,.12.06l.38.11v.18H69.18l0-.17.42-.13a.49.49,0,0,0,.23-.15,1.69,1.69,0,0,0,.16-.33l2.11-5Zm-1.31,3.35h1.7l-.81-2.28Z"/><path class="cls-1" d="M80.92,16.35h-1l0-.17.51-.16c.07,0,.11-.06.11-.12s0-.24,0-.37V11.36c0-.11,0-.21,0-.3a.14.14,0,0,0-.1-.14l-.51-.16v-.18l1,0,.79,0c.26,0,.52,0,.79,0a3.15,3.15,0,0,1,2.16.65,2.49,2.49,0,0,1,.73,2,3.27,3.27,0,0,1-.81,2.36,3,3,0,0,1-2.26.85l-.71,0Zm.4-.37a4,4,0,0,0,.47.05h.47a2.12,2.12,0,0,0,1.66-.64,2.9,2.9,0,0,0,.57-2,2.84,2.84,0,0,0-.54-1.9,2.13,2.13,0,0,0-1.71-.62h-.41l-.51,0Z"/><path class="cls-1" d="M88.44,10.6h1l2,0,0,0-.24,1.28-.17,0L90.76,11H88.85v2.26h1.33a.14.14,0,0,0,.14-.1l.15-.56h.22c0,.39,0,.67,0,.85s0,.46,0,.85h-.22l-.15-.56a.14.14,0,0,0-.13-.11H88.85v1.5c0,.3,0,.6,0,.9h2l.5-1.05.19,0-.09,1.43,0,0h-4v-.17l.5-.16a.15.15,0,0,0,.12-.12V11.06a.15.15,0,0,0-.1-.14l-.51-.16v-.18Z"/><path class="cls-1" d="M95,11.73v3.35c0,.3,0,.6,0,.9h2l.53-1.09.19,0-.09,1.47,0,0h-4v-.17L94,16c.07,0,.11-.06.11-.12s0-.24,0-.37V11.36a2.81,2.81,0,0,0,0-.3.13.13,0,0,0-.09-.14l-.52-.16v-.18l1,0,1,0,0,.18-.51.15A.13.13,0,0,0,95,11c0,.1,0,.24,0,.42Z"/><path class="cls-1" d="M19.4,21h-.74v.13a.24.24,0,0,0,0,.08c.22.32.94.25.94.71,0,.2-.12.19-.12.29s0,0,.07,0,.48-.12.48-.49-.46-.66-.66-.76Z"/><polygon class="cls-1" points="10.51 24.02 10.51 24.02 10.51 24.02 10.51 24.02"/><polygon class="cls-1" points="2.63 8.14 2.63 8.15 2.63 8.14 2.63 8.14 2.63 8.14"/><polygon class="cls-1" points="18.38 8.14 18.38 8.14 18.38 8.15 18.38 8.14 18.38 8.14"/><path class="cls-1" d="M20.71,24.86v.07a10.07,10.07,0,0,1-1.35,5L17.84,28.4A8.17,8.17,0,0,1,10.6,33a.26.26,0,0,1,.11,0c.32.22.25.94.72.94.19,0,.18-.12.28-.12s0,0,0,.07-.12.49-.48.49-.67-.47-.77-.67V33h-.09a.26.26,0,0,0-.11,0c-.33.22-.26.94-.72.94-.2,0-.19-.12-.29-.12s0,0,0,.07.12.49.49.49.67-.47.76-.67V34a.79.79,0,0,1-.35.39.86.86,0,0,0,.34.72,10.23,10.23,0,0,1-8.84-5.15L3.18,28.4a8.07,8.07,0,0,1-.82-3.49V21.14a.26.26,0,0,1,0,.11c-.21.32-.93.25-.93.72,0,.19.11.18.11.28s0,0-.07,0S1,22.17,1,21.8s.46-.66.66-.75h.75V21a.35.35,0,0,0,0-.11c-.21-.32-.93-.25-.93-.71,0-.2.11-.19.11-.29s0,0-.07,0-.48.12-.48.49.46.66.66.76H1.4A.81.81,0,0,1,1,20.7a.82.82,0,0,0-.72.35h0V10.89L2.36,13h8a.17.17,0,0,1-.09,0c-.32-.21-.25-.93-.72-.93-.19,0-.18.12-.28.12s0,0,0-.07.12-.49.49-.49.66.47.75.67v.74h.12a.25.25,0,0,0,.09,0c.32-.21.25-.93.72-.93.19,0,.18.12.28.12s0,0,0-.07-.12-.49-.49-.49-.66.47-.75.66V12a.77.77,0,0,1,.34-.39.79.79,0,0,0-.34-.71h10.2l-2.06,2h0v8c0-.05,0-.08,0-.08.21-.32.93-.25.93-.72,0-.19-.12-.18-.12-.28s0,0,.07,0,.48.12.48.48-.46.67-.66.76h.2a.82.82,0,0,1,.4.35.78.78,0,0,0,.71-.35H19.6a.73.73,0,0,0,.4-.35.85.85,0,0,1,.72.35h0v3.82ZM10.5,35.07V34a.84.84,0,0,0,.35.39.8.8,0,0,1-.35.72ZM.3,21.05H1.41A.74.74,0,0,0,1,21.4a.83.83,0,0,1-.72-.35ZM10.5,10.88V12a.77.77,0,0,0-.34-.39.83.83,0,0,1,.34-.72Zm0-1.48c3.84,0,7,.51,7.48,1.19H3C3.5,9.91,6.67,9.4,10.51,9.4ZM3,9.49c-.2,0-.38-.23-.41-.54s.12-.58.32-.6.39.23.42.54-.12.58-.33.6ZM4.18,6.87a.91.91,0,0,0,.17-.34,1.18,1.18,0,0,0,.31.24,1.24,1.24,0,0,0,.39.1c-.44.06-.85.13-1.2.21a.93.93,0,0,0,.33-.21ZM6.39,8.8a.57.57,0,0,1-.71-.44A.69.69,0,0,1,6,7.61a.48.48,0,0,1,.23-.07h0A.57.57,0,0,1,6.78,8a.65.65,0,0,1-.39.8Zm-.86-2A1,1,0,0,0,6.12,6a.71.71,0,0,0,0-.14h0c0-.09,0-.19.11-.2h0c.07,0,.16.07.18.16A1.07,1.07,0,0,0,6.49,6a1.08,1.08,0,0,0,.78.65c-.65,0-1.26.1-1.82.17l.08,0Zm2.63-.46A1,1,0,0,0,8.36,6a1.15,1.15,0,0,0,.81.54L7.7,6.61a1,1,0,0,0,.46-.29ZM11.31,8a.81.81,0,0,1-1.6,0,.81.81,0,0,1,1.6,0Zm-1-2a1.07,1.07,0,0,0,.09-.43h0c0-.17,0-.24.13-.24s.13.07.13.24h0a.82.82,0,0,0,.09.43,1,1,0,0,0,.68.59H9.6a1,1,0,0,0,.69-.59ZM12.65,6a1.16,1.16,0,0,0,.2.32,1.06,1.06,0,0,0,.46.29l-1.47-.07A1.13,1.13,0,0,0,12.65,6ZM15,8.8a.57.57,0,0,1-.71-.44.69.69,0,0,1,.29-.75.42.42,0,0,1,.23-.07h0a.57.57,0,0,1,.55.46.66.66,0,0,1-.39.8ZM14.52,6a1.07,1.07,0,0,0,.07-.19c0-.09.11-.17.19-.16h0c.08,0,.11.11.11.2h0a.71.71,0,0,0,0,.14,1,1,0,0,0,.58.8l.09,0c-.56-.07-1.18-.13-1.82-.17A1.09,1.09,0,0,0,14.52,6Zm1.83.78a1.22,1.22,0,0,0,.32-.24.78.78,0,0,0,.17.34.81.81,0,0,0,.32.21Q16.63,7,16,6.87a1.18,1.18,0,0,0,.39-.1Zm1.28,2.12c0-.31.21-.55.41-.54s.34.28.32.6-.21.55-.41.54-.35-.28-.32-.6Zm3.38,16V10.59H18.12a.44.44,0,0,0,.23-.37A.57.57,0,0,0,18,9.76a1.71,1.71,0,0,0,.4-.32.93.93,0,0,0,0-1.11l0,0,0,0h0l0,0v0h0c.13-.11.29-.17.29-.38a.25.25,0,0,0,0-.14,1.13,1.13,0,0,1-.13-1h0l0,0c.28-.37.09-.63.25-1.07A1.37,1.37,0,0,1,19,5.14a2.23,2.23,0,0,1,.19-.24c.06-.07.12-.16.16-.16a.48.48,0,0,0,.43-.24A.42.42,0,0,0,19.61,4h0a.26.26,0,0,1,.11-.24c.33-.3.67-.3.74-.54s-.15-.5,0-.66.42-.34.35-.51a.41.41,0,0,0-.48.17C20.35,2,20.22,2,20,2c.12.22,0,.26-.12.54-.11-.33-.54-.45-.71-.21.4,0,.38.78.08,1-.18,0-.46-.37-.23-.62-.55,0-.53.62-.67.79,0-.18-.15-.26-.18-.42a.37.37,0,0,0-.25.45.56.56,0,0,0-.51.11.46.46,0,0,0,.19.45.37.37,0,0,0-.26.44c.18-.08.36,0,.58-.16,0,.14-.25.26-.3.41a1,1,0,0,0,.3.14.33.33,0,0,0-.1.38.81.81,0,0,1,.77-.2,2.69,2.69,0,0,0-.17.34l0,.08-.07-.1-.3.17a.82.82,0,0,1,.15.92.88.88,0,0,1-.6.4.63.63,0,0,1-.49-.15,1.08,1.08,0,0,1-.08-.9.34.34,0,0,0,.3-.34.39.39,0,0,0-.77,0,.35.35,0,0,0,.14.28,1.14,1.14,0,0,1-.51.78.68.68,0,0,1-.56,0,.66.66,0,0,1-.39-.55.91.91,0,0,1,.4-.84l-.21-.25a1,1,0,0,0-.19.16c-.15.14-.22.14-.19,0l.15-1c.42.07.75.41.71.63a.34.34,0,0,0,.17-.36,1,1,0,0,0,.33,0c.06-.15-.08-.39,0-.5.08.25.27.28.37.45a.36.36,0,0,0,.08-.5.48.48,0,0,0,.43-.26A.48.48,0,0,0,17,3.12a.35.35,0,0,0,.08-.49c-.12.11-.28.11-.42.25,0-.22.24-.58-.18-.91,0,.33-.42.45-.58.38-.14-.3.11-.87.45-.7,0-.28-.18-.44-.49-.23.05-.31.09-.47.33-.59-.15-.1-.29-.12-.38,0a.33.33,0,0,0-.22-.4.35.35,0,0,0-.33.33c-.05-.14-.19-.17-.37-.11.2.18.18.35.13.65-.22-.27-.47-.17-.54.1.38-.07.43.54.21.79-.17,0-.56-.21-.44-.52-.5.21-.39.62-.46.82-.09-.16-.24-.21-.32-.35a.36.36,0,0,0-.08.5.5.5,0,0,0-.43.26.48.48,0,0,0,.33.37.35.35,0,0,0-.09.49c.15-.13.34-.11.5-.33.06.13-.14.32-.14.48a.93.93,0,0,0,.33,0,.34.34,0,0,0,.05.4c0-.23.49-.49.93-.41l-.15,1c0,.18-.1.18-.23,0h0a.79.79,0,0,0-.19-.22L14,4.92a.81.81,0,0,1,.17,1,.7.7,0,0,1-.6.46.63.63,0,0,1-.48-.22,1.28,1.28,0,0,1-.24-.89.35.35,0,0,0,.25-.33.39.39,0,0,0-.77,0,.36.36,0,0,0,.19.31,1.56,1.56,0,0,1-.19.63.81.81,0,0,1-.73.41.67.67,0,0,1-.58-.42,1,1,0,0,1,.36-1.11l-.25-.23L11,4.66h0c-.14.15-.29.21-.32,0V3.75c.47,0,.89.32.89.56a.37.37,0,0,0,.12-.4,1.29,1.29,0,0,0,.34,0c0-.17-.14-.39-.06-.52.13.25.33.25.46.41a.36.36,0,0,0,0-.52.56.56,0,0,0,.41-.34.53.53,0,0,0-.41-.33.38.38,0,0,0,0-.53c-.11.14-.27.16-.4.32,0-.22.15-.63-.34-.92.08.34-.36.53-.54.48-.19-.3,0-.92.36-.8,0-.29-.27-.43-.55-.17,0-.33,0-.5.24-.66-.17-.09-.33-.08-.4.06A.36.36,0,0,0,10.52,0h0a.36.36,0,0,0-.27.39C10.15.25,10,.24,9.82.33c.24.16.25.33.25.66-.28-.26-.52-.12-.55.17.39-.12.54.5.36.8-.18,0-.63-.14-.55-.48-.49.29-.31.7-.34.92-.12-.16-.29-.18-.4-.32a.37.37,0,0,0,0,.53.5.5,0,0,0-.41.33.53.53,0,0,0,.41.34.36.36,0,0,0,0,.52c.13-.16.34-.16.46-.41.09.13-.09.35-.06.52a1.37,1.37,0,0,0,.35,0,.35.35,0,0,0,.12.4c0-.24.41-.56.88-.56v.91c0,.21-.18.15-.31,0h0l-.18-.18-.25.23A1,1,0,0,1,10,5.82a.68.68,0,0,1-.58.42.82.82,0,0,1-.74-.41,1.74,1.74,0,0,1-.19-.63.35.35,0,0,0,.2-.31.39.39,0,0,0-.78,0,.36.36,0,0,0,.25.33,1.19,1.19,0,0,1-.24.89.6.6,0,0,1-.47.22.72.72,0,0,1-.61-.46.84.84,0,0,1,.17-1L6.73,4.7a1,1,0,0,0-.18.22h0c-.13.19-.21.19-.24,0l-.15-1c.45-.08.9.18.94.41A.36.36,0,0,0,7.15,4a.85.85,0,0,0,.32,0c0-.16-.2-.35-.13-.48.15.22.34.2.49.33a.36.36,0,0,0-.08-.49.5.5,0,0,0,.33-.37.53.53,0,0,0-.44-.26.35.35,0,0,0-.07-.5c-.09.14-.24.19-.33.35-.06-.2,0-.61-.46-.82.13.31-.26.55-.44.52-.22-.25-.17-.86.22-.79C6.49,1.13,6.24,1,6,1.3,6,1,5.94.83,6.14.65,6,.59,5.82.62,5.78.76A.36.36,0,0,0,5.44.43a.33.33,0,0,0-.21.4C5.14.71,5,.73,4.84.83c.25.12.28.28.34.59-.31-.21-.51,0-.5.23.35-.17.59.4.46.7C5,2.42,4.53,2.3,4.55,2c-.41.33-.18.69-.18.91-.13-.14-.29-.14-.42-.25A.35.35,0,0,0,4,3.12a.46.46,0,0,0-.33.37.48.48,0,0,0,.43.26.36.36,0,0,0,.08.5c.09-.17.29-.2.36-.45.1.11,0,.35,0,.5a.93.93,0,0,0,.32,0,.34.34,0,0,0,.17.36c0-.22.29-.56.72-.63L6,5c0,.18,0,.18-.19,0a1,1,0,0,0-.2-.16l-.21.25a.89.89,0,0,1,.4.84.65.65,0,0,1-.39.55.68.68,0,0,1-.56,0,1.18,1.18,0,0,1-.51-.78.36.36,0,0,0,.15-.28.39.39,0,0,0-.78,0,.35.35,0,0,0,.3.34,1.09,1.09,0,0,1-.07.9.65.65,0,0,1-.5.15.87.87,0,0,1-.59-.4A.82.82,0,0,1,3,5.5l-.31-.17-.07.1,0-.08A1.35,1.35,0,0,0,2.39,5a.8.8,0,0,1,.77.2.34.34,0,0,0-.09-.38,1,1,0,0,0,.29-.14c0-.15-.31-.27-.3-.41.23.16.4.08.59.16A.37.37,0,0,0,3.39,4a.45.45,0,0,0,.18-.45.54.54,0,0,0-.5-.11A.38.38,0,0,0,2.81,3c0,.16-.15.24-.18.42-.13-.17-.11-.75-.67-.79.24.25-.05.59-.23.62-.29-.17-.31-.9.08-1-.16-.24-.59-.12-.71.21C1,2.22.86,2.18,1,2,.8,2,.67,2,.68,2.17A.43.43,0,0,0,.19,2c-.06.17.2.36.36.51s-.06.41,0,.66.4.24.74.54A.32.32,0,0,1,1.41,4h0a.42.42,0,0,0-.13.55.51.51,0,0,0,.43.24s.1.09.16.16a2.31,2.31,0,0,1,.2.24,1.35,1.35,0,0,1,.18.36c.17.44,0,.7.26,1.07l0,0h0a1.13,1.13,0,0,1-.12,1,.27.27,0,0,0,0,.14c0,.21.17.27.29.38h0l0,0,0,0h0v0l0,0a.92.92,0,0,0,0,1.11A1.66,1.66,0,0,0,3,9.76a.56.56,0,0,0-.33.46.44.44,0,0,0,.23.37H0V24.93a10.51,10.51,0,0,0,21,0v-.09Z"/><path class="cls-1" d="M10.49,29.52a.22.22,0,1,0,.22.22.22.22,0,0,0-.22-.22Z"/><path class="cls-1" d="M12.37,16.82a6.2,6.2,0,0,0-1.86-.21,6.28,6.28,0,0,0-1.87.21,9,9,0,0,0,1.87.15,8.89,8.89,0,0,0,1.86-.15Z"/><path class="cls-1" d="M10,29.74a.54.54,0,0,1,.23-.44.55.55,0,0,0-.37-.13h0a.6.6,0,0,0-.36.16h0a.56.56,0,0,0-.17.4.55.55,0,0,0,.17.41h0l0,0h0l0,0h0s0,0,0,0h.05l0,0h.24a.52.52,0,0,0,.35-.14.54.54,0,0,1-.24-.44Z"/><path class="cls-1" d="M10.56,30.26h0a.92.92,0,0,1-.53.33,1.51,1.51,0,0,0,.53.09,1.63,1.63,0,0,0,.55-.1.83.83,0,0,1-.52-.33Z"/><path class="cls-1" d="M10.53,29.22h0a.89.89,0,0,1,.52-.32,1.42,1.42,0,0,0-.55-.1,1.51,1.51,0,0,0-.53.09.88.88,0,0,1,.53.33Z"/><path class="cls-1" d="M11.35,29.18h-.1a.54.54,0,0,0-.4.18.56.56,0,0,1,.17.39.52.52,0,0,1-.18.39.56.56,0,0,0,.43.19h.06a.42.42,0,0,0,.16,0h0l0,0a.58.58,0,0,0,.31-.51.57.57,0,0,0-.49-.56Z"/><path class="cls-1" d="M18,23.51c0,.19-.18.11-.19.11a.11.11,0,0,0,.1-.08c0-.09-.14-.12-.23,0a.45.45,0,0,1-.67-.07A.52.52,0,0,1,17,23.2s-.15-.2-.38-.05-.11.5,0,.63.61.59.68.69a.61.61,0,0,1-.24.91,1.54,1.54,0,0,1-.83.12.37.37,0,0,0,.21.29c0,.07-.19.07-.22.06s0,.17.19.25a.18.18,0,0,1-.17,0,2,2,0,0,0,.14.56c.05.05.25.05.25.05a.36.36,0,0,0,.11.34.07.07,0,0,1-.08.07.6.6,0,0,0,.1.27s-.06,0-.08,0h-.11c-.06,0,0,.27,0,.3s-.17,0-.21,0-.1.17-.23.12-.07.08-.07.1-.07,0-.08-.18c-.09.08-.16.06-.18,0s0,0,0,.06-.07,0-.11-.17-.15,0-.15,0-.14-.08.07-.25c.05-.08.06-.14.08-.16s0,0,.06,0,.13,0,.16.05.18.12.28-.08.05-.17.05-.17l-.1-.07a.61.61,0,0,1,0-.15c0-.09-.36-.41-.44-.45A4.45,4.45,0,0,1,15,26a1.57,1.57,0,0,1-.12-.19.9.9,0,0,1-.62-.14.3.3,0,0,1-.16.2c-.07,0-.15.26-.18.29a.4.4,0,0,1,.06.13s.05.05-.11.19a.12.12,0,0,1-.12,0,.14.14,0,0,0-.11,0s-.1.06-.15.06-.07,0-.12,0-.08,0-.12,0a.34.34,0,0,1-.15,0c-.08,0-.13.05-.21.05s-.11-.08-.22,0-.08-.12-.08-.15-.09-.05-.05-.14-.12,0-.13.07-.08-.09.1-.22c-.08,0,0-.15,0-.16s-.12-.05-.18,0,.11-.12.2-.1.46-.21.49,0,0,.23,0,.27a.29.29,0,0,0,.21.12c.08,0,.32-.06.32-.46s0-.61.15-.74.18-.09.19-.17,0,0,0,0-.19-.19-.18-.3-.07.13-.14.1a.43.43,0,0,0-.16-.32c-.06-.06-.08,0-.08.05s0,.16,0,.14l-.08-.09a.24.24,0,0,1-.06-.17v0h0v0h0v0h0s0,0,0,0a.64.64,0,0,0,0-.07c0-.16-.06-.22-.1-.23s-.09,0-.1,0a.15.15,0,0,1,0-.15s-.13,0-.13,0,0-.05.06-.1,0-.06-.09,0-.27.16-.34.13,0-.08,0-.08a1.49,1.49,0,0,0-.19,0c-.09,0-.12,0-.19-.07s-.08,0-.18,0-.1-.07-.14-.08-.12.06-.32-.14c0,0-.08,0-.08,0a.15.15,0,0,1,0-.13s-.17,0-.15-.21-.16-.12-.14-.15.16-.11.2-.08.06-.18-.17-.19c.07-.09.17-.14.31,0a.24.24,0,0,1,.35.12c0,.09,0,.15,0,.19a.27.27,0,0,0,.17.14c.13,0,.17,0,.29,0a1.09,1.09,0,0,1,.28.06.55.55,0,0,0,.29,0,1.55,1.55,0,0,0,.22-.12v0c-.09-.06-.19-.09-.23-.26s-.15-.12-.19-.3-.07-.16,0-.24-.1-.15,0-.27-.09-.07,0-.22-.11-.3,0-.39a.25.25,0,0,0-.12-.13s.05-.07.19,0,.06-.08.1-.1l.06-.05a.11.11,0,0,0,0-.12s.16-.09.21.12c.07-.06.1,0,.13,0s0-.12-.07-.16a.18.18,0,0,1,.24.16s.19.22-.14.42c-.14.09,0,.31,0,.32s0,.24.05.35a1.27,1.27,0,0,0,.35.35h.08l0,0a.06.06,0,0,0-.06-.09s0-.06.11-.06a.17.17,0,0,0,.18-.07.61.61,0,0,1,.43-.15c.08,0,.27,0,.35,0a.13.13,0,0,0,.12-.07.33.33,0,0,0,0-.1.13.13,0,0,0,0-.06c0-.05-.07,0-.09,0s0,.08-.08.08-.06-.07-.1-.06-.09.05-.12.05-.08-.07-.12,0a.2.2,0,0,1-.2,0s0,0,.08,0a.52.52,0,0,0,.11-.25c0-.07,0-.06,0-.06s0,.09.07.09.08-.06.1-.08,0,0,.05,0a.19.19,0,0,0,.13.07s.22,0,.19-.23-.15-.08-.17-.08-.05,0-.12,0a.1.1,0,0,0-.11.08s-.08,0-.12-.14.08-.23.08-.26-.13,0-.15,0,0-.09.06-.12a1.18,1.18,0,0,1,.38-.23c.06,0,0-.1,0-.12s.08,0,.11.05.06,0,.39-.11c.09-.07,0-.14-.07-.09s0-.14.15-.13.12.1.14.13.06,0,.08,0a.18.18,0,0,0,.06-.17.05.05,0,0,1,.08,0s0-.06,0-.09.1,0,.16.18.06,0,.11,0,0,0,0-.06a.12.12,0,0,1,.15,0,.06.06,0,0,0,0,.09.61.61,0,0,0,.1.18s.11,0,.13,0,0,.16.16.15-.1.12-.12.13.06,0,.08.06,0,.25.08.32.1.05.11,0,0,.1-.21.11,0,.09,0,.09a.38.38,0,0,1,.17.24.59.59,0,0,1-.14.51c-.16.22-.16.3-.06.36a.11.11,0,0,0,.17,0s0,.14-.18.19a.25.25,0,0,1-.21-.06,2.92,2.92,0,0,0,0,.32.42.42,0,0,1-.24.36c-.23.13-.14.27-.12.31s-.24.06-.28-.22h0l0,0h0a1.27,1.27,0,0,1-.48.24.3.3,0,0,0,0,.15,1.65,1.65,0,0,0,.1.45l0,.06v0l0,.05,0,0a.86.86,0,0,0,.47.4.91.91,0,0,1,.64.52.44.44,0,0,0,.4.25.46.46,0,0,0,.32-.83c-.1-.12-.73-.53-.71-1A.51.51,0,0,1,17,23a.1.1,0,0,0,.1,0,.42.42,0,0,1,.66.29s.07,0,.07,0,.29,0,.24.24ZM10.53,31a1.45,1.45,0,0,1-1.6-1.24,1.29,1.29,0,0,1,1-1.15.16.16,0,0,1,.14-.15h.05l.08-.05h0V20.64a.17.17,0,0,1-.12-.06.29.29,0,0,1,0-.09H9.81v-.28H9.53v.28H9.24v-.86h.29v.29h.28v-.29h.29v-.28H9.81v-.29H9.53v.29H9.24v-.86h.29v.28h.28v-.28h.29a.15.15,0,0,1,.14-.15V18c0-.06.11-.13.28-.13s.29.06.29.13V28.38h0a.18.18,0,0,1,.07.05h0a.17.17,0,0,1,.15.15,1.29,1.29,0,0,1,1,1.15A1.46,1.46,0,0,1,10.53,31ZM8.76,25.8s-.19,0-.17,0,.05.13,0,.16c.18.13.11.24.1.22s-.17-.16-.13-.07-.06.12-.06.14,0,.17-.07.15-.17,0-.23,0-.12-.06-.2-.05a.39.39,0,0,1-.16,0s-.07,0-.12,0-.06,0-.11,0-.11-.06-.16-.06a.11.11,0,0,0-.1,0,.14.14,0,0,1-.13,0c-.16-.14-.11-.17-.11-.19a1,1,0,0,1,.06-.13S7,25.86,7,25.82a.31.31,0,0,1-.17-.2.88.88,0,0,1-.61.14,1.57,1.57,0,0,1-.12.19,5.11,5.11,0,0,1-.65.51c-.08,0-.45.36-.44.45a.32.32,0,0,1,0,.15l-.1.07s0,0,.06.17.25.14.28.08.15-.05.16-.05,0,0,.06,0a1.09,1.09,0,0,0,.08.16c.21.17.06.25.06.25s0-.12-.14,0-.12.19-.11.17,0-.09-.05-.06-.09,0-.17,0C5.08,28,5,28,5,28s0-.14-.08-.1-.14,0-.22-.12-.21.06-.21,0,0-.3,0-.3H4.37s-.09,0-.07,0a.52.52,0,0,0,.09-.27.06.06,0,0,1-.07-.07.34.34,0,0,0,.1-.34s.2,0,.25-.05a2,2,0,0,0,.15-.56.18.18,0,0,1-.17,0c.18-.08.2-.27.18-.25s-.18,0-.22-.06c.19-.09.23-.3.21-.29A1.55,1.55,0,0,1,4,25.38a.62.62,0,0,1-.24-.91c.08-.1.65-.65.69-.69s.27-.48,0-.63a.26.26,0,0,0-.39.05.41.41,0,0,1-.09.23.45.45,0,0,1-.67.07c-.08-.08-.24-.05-.22,0s.09.08.1.08S3,23.7,3,23.51s.25-.24.25-.24a.08.08,0,0,0,.07,0A.41.41,0,0,1,4,22.94a.12.12,0,0,0,.11,0,.5.5,0,0,1,.69.51c0,.43-.61.84-.7,1a.46.46,0,0,0,.31.83.41.41,0,0,0,.4-.25,1,1,0,0,1,.65-.52.9.9,0,0,0,.47-.4v0l0-.05v0l0-.06a1.65,1.65,0,0,0,.1-.45.22.22,0,0,0,0-.15,1.2,1.2,0,0,1-.48-.24h0s0,0,0,0h0c0,.28-.3.26-.28.22s.12-.18-.12-.31a.42.42,0,0,1-.24-.36s0-.33,0-.32a.26.26,0,0,1-.22.06c-.2,0-.18-.2-.17-.19a.11.11,0,0,0,.17,0c.09-.06.09-.14-.07-.36a.58.58,0,0,1-.13-.51.35.35,0,0,1,.17-.24s.1-.08,0-.09c-.24,0-.23-.12-.21-.11s0,0,.1,0,.06-.26.09-.32.09,0,.08-.06-.12-.07-.12-.13.14-.12.16-.15.09,0,.12,0A.45.45,0,0,0,5,20a.06.06,0,0,0,0-.09.14.14,0,0,1,.16,0s0,.07,0,.06.08.05.11,0,.16-.2.15-.18,0,.11,0,.09a.07.07,0,0,1,.09,0,.16.16,0,0,0,.05.17s.07,0,.09,0,0-.12.13-.13S6,20,6,20.05s-.17,0-.07.09c.33.15.36.11.39.11s.12-.08.11-.05,0,.09,0,.12a1,1,0,0,1,.38.23s.08.07.06.12-.15,0-.15,0,.12.12.08.26-.11.16-.11.14,0-.08-.12-.08-.08,0-.12,0-.16,0-.17.08.15.23.2.23a.19.19,0,0,0,.12-.07s0,0,.06,0,.06.08.1.08.07-.09.07-.09,0,0,0,.06a.51.51,0,0,0,.1.25s.13,0,.08,0a.18.18,0,0,1-.19,0s-.09,0-.12,0-.08-.05-.12-.05-.07.06-.1.06-.06-.05-.08-.08-.08,0-.09,0v.06a.33.33,0,0,0,0,.1.16.16,0,0,0,.13.07c.07,0,.26,0,.34,0a.59.59,0,0,1,.43.15.19.19,0,0,0,.19.07c.08,0,.15.06.11.06a.06.06,0,0,0-.07.09l0,0h.08a1.09,1.09,0,0,0,.34-.35c.07-.11,0-.2.06-.35s.13-.23,0-.32c-.34-.2-.18-.38-.14-.42A.18.18,0,0,1,8,20.66c-.08,0-.09.16-.07.16s.07,0,.13,0c.06-.21.17-.15.22-.12a.1.1,0,0,0-.05.12l.06.05s0,.1.1.1.2,0,.19,0a.25.25,0,0,0-.12.13.39.39,0,0,1,0,.39c.09.15,0,.13,0,.22s-.07.21-.05.27,0,.06,0,.24-.11.2-.2.3-.13.2-.23.26v0a1.67,1.67,0,0,0,.23.12.51.51,0,0,0,.28,0,1.19,1.19,0,0,1,.29-.06.92.92,0,0,0,.29,0,.3.3,0,0,0,.17-.14s0-.1,0-.19a.24.24,0,0,1,.35-.12c.13-.13.24-.08.3,0-.22,0-.17.19-.17.19s.14,0,.2.08-.17-.05-.14.15-.12.17-.15.21a.14.14,0,0,1,0,.13.07.07,0,0,0-.09,0c-.2.2-.23.14-.31.14s-.07.07-.15.08-.14-.05-.18,0-.09.08-.18.07a1.72,1.72,0,0,0-.2,0c-.07,0,0,.08,0,.08s-.18-.1-.34-.13-.1,0-.08,0,.06.07.06.1-.14,0-.13,0,.07.07,0,.15-.05,0-.09,0-.07.07-.11.23,0,0,0,.07,0,0,0,0h0a0,0,0,0,0,0,0h0a0,0,0,0,1,0,0h0v0a.25.25,0,0,1-.07.17l-.07.09s0-.09,0-.14,0-.11-.08-.05a.51.51,0,0,0-.16.32c-.06,0-.14-.21-.13-.1s-.13.21-.18.3l0,0c0,.08.09.07.18.17s.15.33.15.74.25.46.33.46A.31.31,0,0,0,8.09,26s0-.13,0-.27.48-.11.48,0,.25.11.2.1ZM7.08,21.3a.39.39,0,0,0,.22-.08l0,0h0s0,0,0,0,0,0,0,0,0,0-.15.07-.22.06-.37,0a.76.76,0,0,0-.34,0,.82.82,0,0,1-.21,0l0,0v0a.14.14,0,0,1,0-.06.64.64,0,0,0,.28,0,.33.33,0,0,1,.28.06.6.6,0,0,0,.22.06Zm.59-6.73a.12.12,0,0,1,.14,0s0-.06.08-.06,0,.08,0,.15c0-.09.15-.12.2-.06-.11,0-.1.22,0,.27s.13-.1.06-.17c.15,0,.15.17.18.22s.05-.08.05-.12a.09.09,0,0,1,.07.12.14.14,0,0,1,.14,0c0,.05,0,.08,0,.12a.09.09,0,0,1,.07.12s-.1,0-.16-.05.07.08.08.12l-.08,0a.08.08,0,0,1,0,.1.22.22,0,0,0-.21,0l.05.09v0l0,0,.09,0a.22.22,0,0,0,0,.25.23.23,0,0,0,.16.12.16.16,0,0,0,.13-.05.26.26,0,0,0,0-.24.11.11,0,0,1-.08-.1.11.11,0,0,1,.22,0,.12.12,0,0,1,0,.08c0,.11.07.18.14.21a.19.19,0,0,0,.15,0,.21.21,0,0,0,.11-.16.25.25,0,0,0-.11-.23l.05-.07.06.05s.06,0,0,0l0-.27c-.12,0-.21.12-.2.18a.09.09,0,0,1,0-.1H8.89s0-.11,0-.14-.07.08-.1.13a.1.1,0,0,1,0-.14A.16.16,0,0,1,8.64,15a.12.12,0,0,1,.09-.1.1.1,0,0,1,0-.14s.08,0,.11.07-.06-.16,0-.25c0,.09.12.12.16.1s0-.24-.12-.19.05-.12.13-.06c0-.09,0-.13-.09-.17a.08.08,0,0,1,.11,0,.09.09,0,0,1,.06-.11.1.1,0,0,1,.09.09s0,0,.1,0-.05.1,0,.18a.08.08,0,0,1,.15,0c-.1,0-.12.15-.06.22s.16-.06.12-.15c.14.06.11.17.13.23s.07-.06.09-.09a.09.09,0,0,1,0,.13.16.16,0,0,1,.12.07.17.17,0,0,1-.09.11.09.09,0,0,1,0,.13s-.09,0-.13-.09,0,.09,0,.13l-.09,0s0,.07,0,.1-.13-.13-.26-.11l0,.27c0,.05,0,.05.06,0l.05-.06.07.06a.24.24,0,0,0,0,.26.2.2,0,0,0,.17.13.2.2,0,0,0,.13-.06.36.36,0,0,0,.07-.25.1.1,0,0,1-.07-.09.09.09,0,0,1,.1-.09.1.1,0,0,1,.11.09.1.1,0,0,1-.06.09.38.38,0,0,0,.06.17.23.23,0,0,0,.2.12.2.2,0,0,0,.16-.12.27.27,0,0,0-.1-.31l.07-.06.05.05s.07.06.08,0v-.25c-.13,0-.24.09-.24.15a.09.09,0,0,1,0-.11h-.1s0-.11,0-.14S10,15,10,15.06a.11.11,0,0,1,0-.14.17.17,0,0,1-.11-.09.16.16,0,0,1,.11-.1.11.11,0,0,1,0-.14s.08,0,.11.08,0-.17.09-.25c0,.1.1.15.15.13s0-.25-.09-.22.07-.11.15,0a.21.21,0,0,0-.07-.19s.09,0,.11,0A.12.12,0,0,1,10.5,14h0a.11.11,0,0,1,.08.11s.06,0,.11,0-.07.1-.07.19c.08-.07.14,0,.15,0s-.15.14-.1.22.17,0,.15-.13c.13.08.09.19.09.25s.08,0,.11-.08a.09.09,0,0,1,0,.14.14.14,0,0,1,.11.1.15.15,0,0,1-.11.09.09.09,0,0,1,0,.14s-.09,0-.12-.11,0,.1,0,.14h-.09a.1.1,0,0,1,0,.11c0-.06-.12-.15-.25-.15v.25c0,.06,0,0,.09,0s0,0,0-.05l.07.06c-.11.1-.15.21-.1.31a.18.18,0,0,0,.15.12.24.24,0,0,0,.21-.12.58.58,0,0,0,.05-.17.11.11,0,0,1-.05-.09.09.09,0,0,1,.1-.09.1.1,0,0,1,.11.09.1.1,0,0,1-.07.09.36.36,0,0,0,.07.25.17.17,0,0,0,.29-.07.22.22,0,0,0,0-.26l.06-.06.05.06c0,.05.06.05.07,0l0-.27a.25.25,0,0,0-.26.11.09.09,0,0,1,0-.1l-.09,0s.05-.09,0-.13-.1,0-.14.09a.09.09,0,0,1,0-.13c-.06,0-.08-.05-.09-.11a.16.16,0,0,1,.11-.07.1.1,0,0,1,0-.13s.06.05.08.09,0-.17.13-.23a.12.12,0,0,0,.12.15c.06-.07,0-.24-.06-.22a.08.08,0,0,1,.15,0c0-.08,0-.13,0-.18s.09,0,.1,0a.09.09,0,0,1,.09-.09.1.1,0,0,1,.06.11s.06,0,.1,0-.07.08-.09.17c.09-.06.14,0,.14.06s-.16.11-.13.19.17,0,.16-.1c.12.09,0,.19,0,.25s.08,0,.12-.07a.11.11,0,0,1,0,.14.13.13,0,0,1,.09.1.21.21,0,0,1-.12.07.12.12,0,0,1,0,.14s-.08-.06-.1-.13,0,.1,0,.14H12a.09.09,0,0,1,0,.1c0-.06-.08-.16-.19-.18l-.05.27s0,0,.06,0l0-.05.06.07a.25.25,0,0,0-.11.23.23.23,0,0,0,.1.16.21.21,0,0,0,.16,0,.31.31,0,0,0,.14-.21.09.09,0,0,1,0-.08.1.1,0,0,1,.11-.09.1.1,0,0,1,.1.09.1.1,0,0,1-.08.1.26.26,0,0,0,0,.24.2.2,0,0,0,.14.05.28.28,0,0,0,.16-.12.22.22,0,0,0,0-.25l.08,0,0,0v0a.41.41,0,0,1,.05-.09.24.24,0,0,0-.22,0,.08.08,0,0,1,0-.1l-.08,0s.08-.08.08-.12-.11,0-.16.05a.11.11,0,0,1,.07-.12.15.15,0,0,1-.05-.12.15.15,0,0,1,.14,0,.1.1,0,0,1,.07-.12s0,.07.05.12,0-.21.18-.22c-.06.07,0,.16.07.17s.08-.25,0-.27.16,0,.19.06c0-.07.07-.08,0-.15s.09,0,.09.06a.11.11,0,0,1,.13,0s-.05.09-.1.14,0,.11,0,.18-.11.07-.2.15,0,0,0,.06h0a.12.12,0,0,1,0,.16.13.13,0,0,1-.12.06s0,0,0,0l-.05.06-.06.1c0,.12,0,.2-.07.3h0a.33.33,0,0,0,0,.29.06.06,0,0,1,0,0c0,.06,0,.07-.08.1h0a.26.26,0,0,1,0,.31l-.11.09a.15.15,0,0,1,.09.12.11.11,0,0,1-.06.1h0a1.75,1.75,0,0,1-.37.08,12.55,12.55,0,0,1-1.69.12A12.33,12.33,0,0,1,8.82,17,2,2,0,0,1,8.44,17h0a.12.12,0,0,1-.07-.1.16.16,0,0,1,.1-.12l-.11-.09a.27.27,0,0,1,0-.31h0s-.08,0-.08-.1a.08.08,0,0,1,0,0,.33.33,0,0,0,0-.29h0c-.08-.1,0-.18-.07-.3a.31.31,0,0,0-.05-.1l0-.06-.05,0A.14.14,0,0,1,8,15.26a.13.13,0,0,1,0-.16H8A.09.09,0,0,0,8,15c-.09-.08-.19-.08-.21-.15s.05-.14,0-.18-.11-.1-.1-.14Zm6,6.62a0,0,0,0,1,0,0h0l0,0a.42.42,0,0,0,.22.08.65.65,0,0,0,.23-.06.31.31,0,0,1,.28-.06.59.59,0,0,0,.27,0s0,0,0,.06v0l0,0a.74.74,0,0,1-.2,0,.8.8,0,0,0-.35,0c-.15.07-.16.06-.36,0a.32.32,0,0,1-.16-.07,0,0,0,0,1,0,0Zm4.67,3.65V13.26H2.68V24.91h0a7.83,7.83,0,0,0,15.66,0v-.06Z"/></g><g id="Mi_Santo_Domingo" data-name="Mi Santo Domingo"><path class="cls-2" d="M270.16,5.67h.21l.31.89h-.2l-.06-.18h-.33l-.06.18h-.19Zm0,.55h.23l-.11-.35Z"/><path class="cls-2" d="M257.66,5.67h.92L260,9.54h-.88l-.25-.79h-1.43l-.26.79h-.85Zm-.05,2.41h1l-.49-1.52Z"/><path class="cls-2" d="M262.85,5.76a1.28,1.28,0,0,1,.66.49,1.8,1.8,0,0,1,.27.62,3,3,0,0,1,.08.65,2.6,2.6,0,0,1-.31,1.3,1.41,1.41,0,0,1-1.3.72h-1.67V5.67h1.67a2.38,2.38,0,0,1,.6.09m-1.48.59V8.87h.74a.81.81,0,0,0,.8-.56,2,2,0,0,0,.13-.74,1.87,1.87,0,0,0-.19-.91.78.78,0,0,0-.74-.31Z"/><polygon class="cls-2" points="264.59 5.67 265.44 5.67 266.97 8.37 266.97 5.67 267.73 5.67 267.73 9.54 266.92 9.54 265.34 6.8 265.34 9.54 264.59 9.54 264.59 5.67"/><polygon class="cls-2" points="270.82 5.67 271.01 5.67 271.01 6.4 271.45 6.4 271.45 6.56 270.82 6.56 270.82 5.67"/><path class="cls-2" d="M271.7,5.76a.37.37,0,0,1,.27-.11.35.35,0,0,1,.32.15.29.29,0,0,1,.06.17h-.18a.19.19,0,0,0-.05-.1.17.17,0,0,0-.14-.06.19.19,0,0,0-.16.08.39.39,0,0,0-.06.23.37.37,0,0,0,.06.23.19.19,0,0,0,.16.07.17.17,0,0,0,.14-.06.23.23,0,0,0,.05-.1h.18a.36.36,0,0,1-.37.32.38.38,0,0,1-.3-.12.5.5,0,0,1-.11-.34.48.48,0,0,1,.13-.36"/><path class="cls-2" d="M272.79,5.67H273l.31.89h-.2l-.06-.18h-.32l-.06.18h-.2Zm0,.55H273l-.11-.35Z"/><polygon class="cls-2" points="273.46 5.67 273.64 5.67 273.64 6.4 274.09 6.4 274.09 6.56 273.46 6.56 273.46 5.67"/><path class="cls-2" d="M274.76,5.69a.31.31,0,0,1,.16.11A.39.39,0,0,1,275,6a.78.78,0,0,1,0,.14.56.56,0,0,1-.08.3.31.31,0,0,1-.29.17h-.39V5.67h.39l.13,0m-.34.13V6.4h.18a.19.19,0,0,0,.18-.13.4.4,0,0,0,0-.17.37.37,0,0,0-.05-.2.16.16,0,0,0-.16-.08Z"/><rect class="cls-2" x="275.15" y="5.67" width="0.18" height="0.89"/><path class="cls-2" d="M275.8,5.67H276l.31.89h-.2l-.06-.18h-.33l-.06.18h-.19Zm0,.55H276l-.11-.35Z"/><path class="cls-2" d="M270.42,7.17a.28.28,0,0,1,.15.11.41.41,0,0,1,.07.15.71.71,0,0,1,0,.14.56.56,0,0,1-.07.3.31.31,0,0,1-.29.17h-.39V7.15h.39l.13,0m-.34.14v.57h.17a.19.19,0,0,0,.19-.13.38.38,0,0,0,0-.16.41.41,0,0,0-.05-.21s-.08-.07-.17-.07Z"/><rect class="cls-2" x="270.81" y="7.15" width="0.18" height="0.89"/><path class="cls-2" d="M271.33,7.76a.19.19,0,0,0,0,.1.22.22,0,0,0,.16,0h.11a.11.11,0,0,0,.07-.11.06.06,0,0,0,0-.06l-.13-.05-.09,0a.5.5,0,0,1-.2-.07.21.21,0,0,1-.09-.19.27.27,0,0,1,.09-.2.38.38,0,0,1,.26-.08.41.41,0,0,1,.24.08.25.25,0,0,1,.1.22h-.17a.14.14,0,0,0-.08-.12l-.11,0a.2.2,0,0,0-.11,0,.09.09,0,0,0-.05.08s0,.05.05.07l.11,0,.16,0a.35.35,0,0,1,.15.07.19.19,0,0,1,.08.18.25.25,0,0,1-.09.2.36.36,0,0,1-.27.08.38.38,0,0,1-.27-.08.25.25,0,0,1-.1-.22Z"/><polygon class="cls-2" points="272.7 7.15 272.7 7.31 272.44 7.31 272.44 8.04 272.25 8.04 272.25 7.31 271.98 7.31 271.98 7.15 272.7 7.15"/><path class="cls-2" d="M273.41,7.17a.27.27,0,0,1,.08.07.18.18,0,0,1,.05.07.33.33,0,0,1,0,.22.14.14,0,0,1-.1.08s.07,0,.08.07a.29.29,0,0,1,0,.14v.06a.22.22,0,0,0,0,.09.05.05,0,0,0,0,0V8h-.21a.07.07,0,0,0,0,0,.25.25,0,0,0,0-.08V7.83a.16.16,0,0,0,0-.11s-.05,0-.1,0H273V8h-.18V7.15h.42l.14,0m-.38.14v.23h.29a.11.11,0,0,0,.05-.1.13.13,0,0,0-.05-.11H273Z"/><rect class="cls-2" x="273.75" y="7.15" width="0.18" height="0.89"/><polygon class="cls-2" points="274.79 7.15 274.79 7.31 274.52 7.31 274.52 8.04 274.33 8.04 274.33 7.31 274.07 7.31 274.07 7.15 274.79 7.15"/><path class="cls-2" d="M275.59,8a.39.39,0,0,1-.29.1A.37.37,0,0,1,275,8a.48.48,0,0,1-.14-.37.46.46,0,0,1,.14-.36.37.37,0,0,1,.29-.11.4.4,0,0,1,.29.11.45.45,0,0,1,.13.36.48.48,0,0,1-.13.37m-.12-.13a.36.36,0,0,0,.07-.24.33.33,0,0,0-.07-.23.21.21,0,0,0-.17-.08.22.22,0,0,0-.18.08.39.39,0,0,0-.06.23.43.43,0,0,0,.06.24.22.22,0,0,0,.18.08.21.21,0,0,0,.17-.08"/><polygon class="cls-2" points="269.9 8.63 270.09 8.63 270.45 9.25 270.45 8.63 270.62 8.63 270.62 9.52 270.43 9.52 270.07 8.89 270.07 9.52 269.9 9.52 269.9 8.63"/><path class="cls-2" d="M271.08,8.63h.21l.31.89h-.2l-.06-.18H271l-.06.18h-.2Zm0,.55h.22l-.11-.35Z"/><path class="cls-2" d="M271.83,8.72a.41.41,0,0,1,.28-.11.37.37,0,0,1,.32.15.29.29,0,0,1,.06.17h-.18a.3.3,0,0,0-.05-.1.18.18,0,0,0-.15-.06.19.19,0,0,0-.15.08.43.43,0,0,0-.06.24.34.34,0,0,0,.06.22.18.18,0,0,0,.15.07.18.18,0,0,0,.15-.06.46.46,0,0,0,.05-.1h.18a.46.46,0,0,1-.12.23.37.37,0,0,1-.25.09.38.38,0,0,1-.3-.12.5.5,0,0,1-.11-.34.52.52,0,0,1,.12-.36"/><rect class="cls-2" x="272.66" y="8.63" width="0.18" height="0.89"/><path class="cls-2" d="M273.73,9.44a.47.47,0,0,1-.58,0,.48.48,0,0,1-.14-.37.46.46,0,0,1,.14-.36.44.44,0,0,1,.58,0,.46.46,0,0,1,.14.36.48.48,0,0,1-.14.37m-.12-.13a.36.36,0,0,0,.07-.24.33.33,0,0,0-.07-.23.21.21,0,0,0-.17-.08.25.25,0,0,0-.18.08.39.39,0,0,0-.06.23.43.43,0,0,0,.06.24.25.25,0,0,0,.18.08.21.21,0,0,0,.17-.08"/><polygon class="cls-2" points="274.04 8.63 274.23 8.63 274.58 9.25 274.58 8.63 274.76 8.63 274.76 9.52 274.57 9.52 274.21 8.89 274.21 9.52 274.04 9.52 274.04 8.63"/><path class="cls-2" d="M275.22,8.63h.21l.31.89h-.2l-.06-.18h-.33l-.06.18h-.19Zm0,.55h.23l-.11-.35Z"/><polygon class="cls-2" points="275.88 8.63 276.07 8.63 276.07 9.36 276.51 9.36 276.51 9.52 275.88 9.52 275.88 8.63"/><rect class="cls-2" x="268.94" y="4.96" width="0.2" height="5.31"/><polygon class="cls-2" points="275.46 5.4 275.27 5.58 275.14 5.58 275.26 5.4 275.46 5.4"/><rect class="cls-2" x="254.48" y="3.17" width="0.61" height="0.61" transform="translate(72.21 181.22) rotate(-45.01)"/><rect class="cls-2" x="250.64" y="4.3" width="0.61" height="0.61"/><rect class="cls-2" x="249.98" y="3.27" width="0.61" height="0.61" transform="translate(70.78 178.02) rotate(-45)"/><rect class="cls-2" x="252.27" y="2.19" width="0.61" height="0.61" transform="translate(72.22 179.33) rotate(-45)"/><rect class="cls-2" x="251.7" y="4.3" width="0.61" height="0.61"/><rect class="cls-2" x="252.76" y="4.3" width="0.61" height="0.61"/><rect class="cls-2" x="251.7" y="3.24" width="0.61" height="0.68"/><rect class="cls-2" x="252.76" y="3.24" width="0.61" height="0.68"/><rect class="cls-2" x="253.82" y="4.3" width="0.68" height="0.61"/><rect class="cls-2" x="250.11" y="5.74" width="0.61" height="0.61"/><rect class="cls-2" x="251.17" y="5.74" width="0.61" height="0.61"/><rect class="cls-2" x="252.3" y="5.74" width="0.61" height="0.61"/><rect class="cls-2" x="253.29" y="5.74" width="0.61" height="0.61"/><rect class="cls-2" x="254.35" y="5.74" width="0.61" height="0.61"/><rect class="cls-2" x="250.11" y="6.8" width="0.61" height="0.61"/><rect class="cls-2" x="252.3" y="6.8" width="0.61" height="0.61"/><rect class="cls-2" x="254.35" y="6.8" width="0.61" height="0.61"/><rect class="cls-2" x="250.11" y="7.86" width="0.61" height="0.61"/><rect class="cls-2" x="251.17" y="7.86" width="0.61" height="0.61"/><rect class="cls-2" x="252.3" y="7.86" width="0.61" height="0.61"/><rect class="cls-2" x="253.29" y="7.86" width="0.61" height="0.61"/><rect class="cls-2" x="254.35" y="7.86" width="0.61" height="0.61"/><rect class="cls-2" x="250.11" y="8.84" width="0.61" height="0.61"/><rect class="cls-2" x="250.49" y="9.9" width="0.61" height="0.68"/><rect class="cls-2" x="251.17" y="10.74" width="0.61" height="0.61"/><rect class="cls-2" x="252.3" y="8.84" width="0.61" height="0.61"/><rect class="cls-2" x="252.3" y="9.9" width="0.61" height="0.68"/><rect class="cls-2" x="252.3" y="11.04" width="0.61" height="0.61"/><rect class="cls-2" x="254.35" y="8.84" width="0.61" height="0.61"/><rect class="cls-2" x="254.05" y="9.9" width="0.61" height="0.68"/><rect class="cls-2" x="253.29" y="10.74" width="0.61" height="0.61"/><polygon class="cls-3" points="219.76 19.07 210.68 35.79 201.6 19.07 206.03 19.07 210.68 27.63 215.33 19.07 219.76 19.07"/><polygon class="cls-2" points="216.18 25.67 216.18 35.79 219.76 35.79 219.76 19.07 216.18 25.67"/><polygon class="cls-2" points="201.64 35.79 205.2 35.79 205.2 25.73 201.64 19.2 201.64 35.79"/><rect class="cls-2" x="218.17" y="2.15" width="3.63" height="15.04"/><polygon class="cls-4" points="214.73 3.73 218.19 3.73 220 2.17 218.19 0.62 214.73 0.62 213.37 0.62 213.37 3.73 214.73 3.73"/><polygon class="cls-5" points="225.28 0.62 221.82 0.62 220 2.17 221.82 3.73 225.28 3.73 226.63 3.73 226.63 0.62 225.28 0.62"/><path class="cls-2" d="M170.17,5.38h-3.72c.16,6.05,9.56,4.1,9.56,7,0,.95-.94,1.85-2.89,1.85A7.29,7.29,0,0,1,167.84,12l-1.92,2.69a9.49,9.49,0,0,0,7,2.65c4.48,0,6.65-2.3,6.65-5.34,0-5.8-8.35-4.63-9.43-6.61"/><polygon class="cls-2" points="197.34 17.19 212.22 17.19 201.87 0.57 197.34 0.57 197.34 17.19"/><polygon class="cls-6" points="201.87 0.57 212.22 0.57 212.22 17.19 201.87 0.57"/><polygon class="cls-7" points="202.3 0.57 208.31 0.57 208.31 10.6 202.3 0.57"/><polygon class="cls-2" points="197.34 17.19 200.88 17.19 200.88 6.35 201.07 6.61 197.34 0.57 197.34 17.19"/><polygon class="cls-3" points="202.3 0.57 200.98 0.57 197.34 0.57 201.07 6.61 207.6 17.19 208.81 17.19 212.22 17.19 211.18 15.4 202.3 0.57"/><path class="cls-6" d="M255.49,27.45H244.66l.9,3.85,2.84,2,2.3.21.1-.65a5.48,5.48,0,0,0,4.69-5.42"/><path class="cls-2" d="M250.42,18.79H250a8.45,8.45,0,0,0-8.5,8.64A8.48,8.48,0,0,0,250,36.1V32.91a5.21,5.21,0,0,1-4.84-5.47A5.21,5.21,0,0,1,250,22l.4,0a4.73,4.73,0,0,1,4,2.18l3-1.6a7.81,7.81,0,0,0-6.92-3.74"/><path class="cls-5" d="M258.68,27.45H250v8.66a8.66,8.66,0,0,0,8.66-8.66"/><path class="cls-6" d="M200.64,27.56h0v0H183.35v0h0a8.65,8.65,0,1,0,17.29,0"/><path class="cls-2" d="M192,22.21a5.33,5.33,0,1,0,5.45,5.33A5.4,5.4,0,0,0,192,22.21"/><path class="cls-2" d="M226.4,8.89a8.69,8.69,0,0,1,17.37,0,8.69,8.69,0,0,1-17.37,0m13.73,0c0-3.11-2-5.45-5.06-5.45s-5,2.34-5,5.45,2,5.46,5,5.46,5.06-2.37,5.06-5.46"/><path class="cls-6" d="M226.18,8.89a8.62,8.62,0,0,0,8.65,8.6V.3a8.62,8.62,0,0,0-8.65,8.59"/><rect class="cls-2" x="166.87" y="19.12" width="7.13" height="16.62"/><path class="cls-4" d="M182.25,27.43A8.28,8.28,0,0,0,174,19.12V35.74a8.28,8.28,0,0,0,8.25-8.31"/><polygon class="cls-6" points="225.55 35.7 229.09 35.7 229.09 24.86 229.27 25.11 225.55 19.08 225.55 35.7"/><polygon class="cls-8" points="240.42 19.08 240.42 35.7 236.8 29.6 236.8 19.08 240.42 19.08"/><polygon class="cls-2" points="230.5 19.08 229.19 19.08 225.55 19.08 229.27 25.11 235.8 35.7 237.01 35.7 240.42 35.7 239.38 33.91 230.5 19.08"/><rect class="cls-4" x="220.88" y="19.16" width="3.56" height="16.63"/><path class="cls-4" d="M259.78,27.52h0a8.6,8.6,0,1,0,17.19,0h0v0h0a8.6,8.6,0,1,0-17.19,0h0v0"/><polygon class="cls-2" points="180.07 14.38 178.48 17.13 182.53 17.13 183.79 14.08 180.23 14.08 180.07 14.38"/><polygon class="cls-2" points="195.11 14.38 196.69 17.13 192.64 17.13 191.39 14.08 194.95 14.08 195.11 14.38"/><polygon class="cls-6" points="187.59 0.63 180.07 14.34 187.59 14.34 195.1 14.34 187.59 0.63"/><path class="cls-2" d="M273.87,27.39h0a5.5,5.5,0,1,0-11,0h0a5.5,5.5,0,1,0,11,0h0"/><path class="cls-4" d="M173,0c-3.63,0-6.56,2.41-6.56,5.38H179.6c0-3-2.94-5.38-6.56-5.38"/><path class="cls-5" d="M192,22.21a5.39,5.39,0,0,1,5.45,5.33h3.19v0h0a8.65,8.65,0,1,0-17.29,0h0v0h3.19A5.4,5.4,0,0,1,192,22.21"/><path class="cls-8" d="M268.24,33v3.19h0a8.65,8.65,0,1,0,0-17.29h0V33Z"/></g><rect class="cls-1" x="148.34" y="0.33" width="2.47" height="35.13" rx="1.24"/></g></g></g></g></g></svg>